<svg width="6" height="10" viewBox="0 0 6 10" fill="#3B434E" xmlns="http://www.w3.org/2000/svg">
<path d="M5.71539 4.60979L1.26526 0.159741C1.16233 0.0567342 1.02494 -1.33514e-05 0.878433 -1.33514e-05C0.73193 -1.33514e-05 0.594533 0.0567342 0.491607 0.159741L0.163886 0.487381C-0.0493644 0.700875 -0.0493644 1.04786 0.163886 1.26103L3.90077 4.99791L0.15974 8.73894C0.0568136 8.84195 -1.52588e-05 8.97926 -1.52588e-05 9.12568C-1.52588e-05 9.27227 0.0568136 9.40959 0.15974 9.51267L0.48746 9.84023C0.590468 9.94324 0.727784 9.99999 0.874287 9.99999C1.02079 9.99999 1.15819 9.94324 1.26111 9.84023L5.71539 5.38612C5.81856 5.28279 5.87522 5.14482 5.8749 4.99816C5.87522 4.85092 5.81856 4.71304 5.71539 4.60979Z"/>
</svg>
